<svg xmlns="http://www.w3.org/2000/svg" viewBox="0 0 50 50" fill="none">
  <rect width="50" height="50" rx="4" fill="#2a231c"/>
  <path d="M1.52832 23.4941C2.15918 10.7289 13.0221 0.893191 25.7871 1.5293C28.2704 1.65305 30.7175 2.17652 33.0342 3.0791C43.6035 7.19699 49.6278 18.3704 47.2607 29.4639C44.8934 40.5572 34.8325 48.2982 23.5029 47.7432C10.7376 47.1174 0.897734 36.2591 1.52832 23.4941Z" stroke="white" stroke-width="1.2"/>
  <path d="M25.1182 14.0352C26.8441 12.883 28.8674 12.3152 31.1709 13.0537H31.1738C32.9292 13.6343 34.3782 14.8814 35.1992 16.5195C35.5135 17.1338 35.6564 17.602 35.7227 18.085C35.7866 18.5514 35.7784 19.0383 35.7988 19.6475C35.8818 22.124 34.2935 24.3543 32.0742 25.4395C31.2119 25.8669 30.2587 26.0852 29.2939 26.0742L29.1992 25.5352C29.2621 25.5117 29.2706 25.5061 29.2725 25.5049C29.2738 25.504 29.2806 25.5009 29.3301 25.4521L29.3945 25.3887L29.4844 25.375C29.6694 25.3473 29.8843 25.3262 30.0742 25.3037C30.2723 25.2803 30.4529 25.2545 30.6025 25.2148L30.8555 25.1416C32.1051 24.7529 33.1278 24.0173 33.9229 22.9746C35.8606 20.4332 35.3526 16.5056 32.6982 14.668C30.4487 13.1107 28.3558 13.1991 26.4873 14.1221C24.5965 15.0562 22.9253 16.8522 21.5928 18.7236C20.9395 19.6411 20.3533 20.607 19.7129 21.5742C19.0782 22.5329 18.4007 23.4769 17.5898 24.3076L17.5869 24.3105C16.4265 25.4693 14.4181 25.4957 13.1455 24.5674C12.3952 24.023 11.8943 23.2051 11.7559 22.2949V22.2939C11.4814 20.4367 12.8784 18.643 14.7305 18.3926C14.9463 18.3634 15.2326 18.3535 15.5117 18.3799C15.7824 18.4055 16.0875 18.4687 16.3125 18.6152L16.7285 18.8867L16.2803 19.0996C16.1664 19.1537 16.0358 19.1665 15.9316 19.1689C15.8209 19.1715 15.702 19.1632 15.5938 19.1533C15.4774 19.1427 15.3841 19.1314 15.2891 19.124C15.1937 19.1166 15.1352 19.1169 15.1055 19.1211C13.9542 19.2857 13.2409 19.7935 12.8574 20.4072C12.4706 21.0265 12.3988 21.7869 12.5938 22.4902C12.7888 23.194 13.2464 23.822 13.8945 24.1777C14.5362 24.5299 15.3896 24.6295 16.4111 24.2334C16.7449 24.104 17.1233 23.7884 17.5303 23.3271C17.9318 22.872 18.3375 22.3023 18.7334 21.7021C19.1295 21.1016 19.509 20.4811 19.8613 19.9199C20.2097 19.365 20.536 18.8614 20.8174 18.5166C21.9762 16.9012 23.4071 15.1775 25.1182 14.0352Z" fill="white" stroke="white" stroke-width="0.556641"/>
  <path d="M29.4792 26.5483C28.9064 26.5974 28.2743 26.3517 28.0029 25.8361C27.9444 24.5723 30.4898 23.5588 29.9183 26.2686C29.7404 26.4438 29.7144 26.4605 29.4792 26.5483Z" fill="white"/>
  <path d="M26.2916 26.3015C26.1807 26.6863 25.9514 27.5485 25.8554 28.0564C25.7742 28.4858 25.6934 28.9131 25.6046 29.2607C25.3758 30.1565 25.1802 31.0636 24.9847 31.9698C24.8516 32.5867 24.7186 33.2033 24.5754 33.8155C24.498 34.0978 24.4329 34.4003 24.3664 34.7085C24.2093 35.4375 24.0453 36.1986 23.6972 36.8017C23.2301 37.6108 22.254 37.9734 21.4449 37.4381C20.5696 36.859 20.39 36.1669 20.1528 35.2529L20.145 35.223C19.826 33.9353 20.064 31.971 20.6264 30.7834C21.7812 28.3448 23.8011 27.1774 26.1955 26.2309M25.6718 24.498C23.8451 23.9503 25.2502 21.1983 26.5081 20.5549C27.7094 20.5194 27.2195 22.4171 26.991 23.3024C26.9663 23.3981 26.9446 23.482 26.9285 23.5503L26.2916 26.2309C26.7207 26.1048 29.1127 25.921 29.502 26.0544" stroke="white" stroke-linecap="round" stroke-linejoin="round" stroke-width="1.1"/>
</svg>
